<svg xmlns="http://www.w3.org/2000/svg" viewBox="0 0 512 512">
  <defs>
    <linearGradient id="bg" x1="0" y1="0" x2="1" y2="1">
      <stop offset="0%" stop-color="#F0BE55"/>
      <stop offset="55%" stop-color="#EE7C8E"/>
      <stop offset="100%" stop-color="#E8677D"/>
    </linearGradient>
    <linearGradient id="petal" x1="0" y1="0" x2="0" y2="1">
      <stop offset="0%" stop-color="#FFFFFF"/>
      <stop offset="100%" stop-color="#FFF3E8"/>
    </linearGradient>
    <radialGradient id="center" cx="0.35" cy="0.35" r="0.75">
      <stop offset="0%" stop-color="#F6D27A"/>
      <stop offset="100%" stop-color="#E3B23C"/>
    </radialGradient>
    <filter id="shadow" x="-30%" y="-30%" width="160%" height="160%">
      <feDropShadow dx="0" dy="10" stdDeviation="14" flood-color="#5A2E33" flood-opacity="0.28"/>
    </filter>
  </defs>
  <rect x="0" y="0" width="512" height="512" rx="118" fill="url(#bg)"/>
  <rect x="0" y="0" width="512" height="512" rx="118" fill="#FFFFFF" opacity="0.04"/>
  <g filter="url(#shadow)">
    <g transform="translate(256,238)">
      <ellipse cx="0" cy="-72" rx="42" ry="64" fill="url(#petal)"/>
      <ellipse cx="0" cy="72" rx="42" ry="64" fill="url(#petal)"/>
      <ellipse cx="-72" cy="0" rx="64" ry="42" fill="url(#petal)"/>
      <ellipse cx="72" cy="0" rx="64" ry="42" fill="url(#petal)"/>
      <ellipse cx="-51" cy="-51" rx="54" ry="36" fill="url(#petal)" opacity="0.92" transform="rotate(-45 -51 -51)"/>
      <ellipse cx="51" cy="-51" rx="54" ry="36" fill="url(#petal)" opacity="0.92" transform="rotate(45 51 -51)"/>
      <ellipse cx="-51" cy="51" rx="54" ry="36" fill="url(#petal)" opacity="0.92" transform="rotate(45 -51 51)"/>
      <ellipse cx="51" cy="51" rx="54" ry="36" fill="url(#petal)" opacity="0.92" transform="rotate(-45 51 51)"/>
      <circle cx="0" cy="0" r="40" fill="url(#center)"/>
    </g>
  </g>
  <path d="M319 349 C312 362 312 373 322 380 C332 387 344 382 346 371 C348 360 338 349 319 349 Z" fill="#8C6BAE"/>
  <path d="M150 150 l5 12 12 5 -12 5 -5 12 -5 -12 -12 -5 12 -5 Z" fill="#FFFFFF" opacity="0.85"/>
</svg>
